<?xml version="1.0" encoding="us-ascii" standalone="no"?><svg xmlns="http://www.w3.org/2000/svg" xmlns:xlink="http://www.w3.org/1999/xlink" contentStyleType="text/css" height="1738px" preserveAspectRatio="none" style="width:1111px;height:1738px;background:#FFFFFF;" version="1.1" viewBox="0 0 1111 1738" width="1111px" zoomAndPan="magnify"><defs/><g><text fill="#000000" font-family="sans-serif" font-size="14" font-weight="bold" lengthAdjust="spacing" textLength="444" x="329.5" y="28.5352">WebSocket Live Updates &amp; Heartbeat (Multi-Client Broadcast)</text><rect fill="none" height="318.7266" style="stroke:#000000;stroke-width:1.5;" width="1081" x="13" y="579.3242"/><rect fill="none" height="105.2422" style="stroke:#000000;stroke-width:1.5;" width="598.5" x="23" y="735.1875"/><rect fill="none" height="490.2129" style="stroke:#000000;stroke-width:1.5;" width="959" x="13" y="955.3613"/><rect fill="none" height="105.2422" style="stroke:#000000;stroke-width:1.5;" width="598.5" x="23" y="979.6719"/><rect fill="none" height="103.8867" style="stroke:#000000;stroke-width:1.5;" width="939" x="23" y="1098.9141"/><rect fill="none" height="103.8867" style="stroke:#000000;stroke-width:1.5;" width="675" x="93" y="1216.8008"/><rect fill="none" height="103.8867" style="stroke:#000000;stroke-width:1.5;" width="609" x="161" y="1334.6875"/><line style="stroke:#181818;stroke-width:0.5;stroke-dasharray:5.0,5.0;" x1="63" x2="63" y1="118.9766" y2="1657.4375"/><line style="stroke:#181818;stroke-width:0.5;stroke-dasharray:5.0,5.0;" x1="132" x2="132" y1="118.9766" y2="1657.4375"/><line style="stroke:#181818;stroke-width:0.5;stroke-dasharray:5.0,5.0;" x1="201" x2="201" y1="118.9766" y2="1657.4375"/><line style="stroke:#181818;stroke-width:0.5;stroke-dasharray:5.0,5.0;" x1="543.5" x2="543.5" y1="118.9766" y2="1657.4375"/><line style="stroke:#181818;stroke-width:0.5;stroke-dasharray:5.0,5.0;" x1="765" x2="765" y1="118.9766" y2="1657.4375"/><line style="stroke:#181818;stroke-width:0.5;stroke-dasharray:5.0,5.0;" x1="1032" x2="1032" y1="118.9766" y2="1657.4375"/><text fill="#000000" font-family="sans-serif" font-size="14" lengthAdjust="spacing" textLength="54" x="33" y="116.0234">Client A</text><ellipse cx="63" cy="50.9883" fill="#E2E2F0" rx="8" ry="8" style="stroke:#181818;stroke-width:0.5;"/><path d="M63,58.9883 L63,85.9883 M50,66.9883 L76,66.9883 M63,85.9883 L50,100.9883 M63,85.9883 L76,100.9883 " fill="none" style="stroke:#181818;stroke-width:0.5;"/><text fill="#000000" font-family="sans-serif" font-size="14" lengthAdjust="spacing" textLength="54" x="33" y="1669.9727">Client A</text><ellipse cx="63" cy="1681.4258" fill="#E2E2F0" rx="8" ry="8" style="stroke:#181818;stroke-width:0.5;"/><path d="M63,1689.4258 L63,1716.4258 M50,1697.4258 L76,1697.4258 M63,1716.4258 L50,1731.4258 M63,1716.4258 L76,1731.4258 " fill="none" style="stroke:#181818;stroke-width:0.5;"/><text fill="#000000" font-family="sans-serif" font-size="14" lengthAdjust="spacing" textLength="52" x="103" y="116.0234">Client B</text><ellipse cx="132" cy="50.9883" fill="#E2E2F0" rx="8" ry="8" style="stroke:#181818;stroke-width:0.5;"/><path d="M132,58.9883 L132,85.9883 M119,66.9883 L145,66.9883 M132,85.9883 L119,100.9883 M132,85.9883 L145,100.9883 " fill="none" style="stroke:#181818;stroke-width:0.5;"/><text fill="#000000" font-family="sans-serif" font-size="14" lengthAdjust="spacing" textLength="52" x="103" y="1669.9727">Client B</text><ellipse cx="132" cy="1681.4258" fill="#E2E2F0" rx="8" ry="8" style="stroke:#181818;stroke-width:0.5;"/><path d="M132,1689.4258 L132,1716.4258 M119,1697.4258 L145,1697.4258 M132,1716.4258 L119,1731.4258 M132,1716.4258 L145,1731.4258 " fill="none" style="stroke:#181818;stroke-width:0.5;"/><text fill="#000000" font-family="sans-serif" font-size="14" lengthAdjust="spacing" textLength="54" x="171" y="116.0234">Client C</text><ellipse cx="201" cy="50.9883" fill="#E2E2F0" rx="8" ry="8" style="stroke:#181818;stroke-width:0.5;"/><path d="M201,58.9883 L201,85.9883 M188,66.9883 L214,66.9883 M201,85.9883 L188,100.9883 M201,85.9883 L214,100.9883 " fill="none" style="stroke:#181818;stroke-width:0.5;"/><text fill="#000000" font-family="sans-serif" font-size="14" lengthAdjust="spacing" textLength="54" x="171" y="1669.9727">Client C</text><ellipse cx="201" cy="1681.4258" fill="#E2E2F0" rx="8" ry="8" style="stroke:#181818;stroke-width:0.5;"/><path d="M201,1689.4258 L201,1716.4258 M188,1697.4258 L214,1697.4258 M201,1716.4258 L188,1731.4258 M201,1716.4258 L214,1731.4258 " fill="none" style="stroke:#181818;stroke-width:0.5;"/><rect fill="#E2E2F0" height="30.4883" rx="2.5" ry="2.5" style="stroke:#181818;stroke-width:0.5;" width="135" x="476.5" y="87.4883"/><text fill="#000000" font-family="sans-serif" font-size="14" lengthAdjust="spacing" textLength="121" x="483.5" y="108.0234">WebSocket Server</text><rect fill="#E2E2F0" height="30.4883" rx="2.5" ry="2.5" style="stroke:#181818;stroke-width:0.5;" width="135" x="476.5" y="1656.4375"/><text fill="#000000" font-family="sans-serif" font-size="14" lengthAdjust="spacing" textLength="121" x="483.5" y="1676.9727">WebSocket Server</text><rect fill="#E2E2F0" height="30.4883" style="stroke:#181818;stroke-width:0.5;" width="114" x="710" y="83.4883"/><rect fill="#E2E2F0" height="30.4883" style="stroke:#181818;stroke-width:0.5;" width="114" x="706" y="87.4883"/><text fill="#000000" font-family="sans-serif" font-size="14" lengthAdjust="spacing" textLength="100" x="713" y="108.0234">Redis Pub/Sub</text><rect fill="#E2E2F0" height="30.4883" style="stroke:#181818;stroke-width:0.5;" width="114" x="710" y="1656.4375"/><rect fill="#E2E2F0" height="30.4883" style="stroke:#181818;stroke-width:0.5;" width="114" x="706" y="1660.4375"/><text fill="#000000" font-family="sans-serif" font-size="14" lengthAdjust="spacing" textLength="100" x="713" y="1680.9727">Redis Pub/Sub</text><rect fill="#E2E2F0" height="30.4883" rx="2.5" ry="2.5" style="stroke:#181818;stroke-width:0.5;" width="104" x="980" y="87.4883"/><text fill="#000000" font-family="sans-serif" font-size="14" lengthAdjust="spacing" textLength="90" x="987" y="108.0234">Score Service</text><rect fill="#E2E2F0" height="30.4883" rx="2.5" ry="2.5" style="stroke:#181818;stroke-width:0.5;" width="104" x="980" y="1656.4375"/><text fill="#000000" font-family="sans-serif" font-size="14" lengthAdjust="spacing" textLength="90" x="987" y="1676.9727">Score Service</text><rect fill="#EEEEEE" height="3" style="stroke:#EEEEEE;stroke-width:1.0;" width="1104" x="0" y="149.6318"/><line style="stroke:#000000;stroke-width:1.0;" x1="0" x2="1104" y1="149.6318" y2="149.6318"/><line style="stroke:#000000;stroke-width:1.0;" x1="0" x2="1104" y1="152.6318" y2="152.6318"/><rect fill="#EEEEEE" height="23.3105" style="stroke:#000000;stroke-width:2.0;" width="138" x="483" y="138.9766"/><text fill="#000000" font-family="sans-serif" font-size="13" font-weight="bold" lengthAdjust="spacing" textLength="120" x="489" y="155.5449">Connection Phase</text><polygon fill="#181818" points="532,189.5977,542,193.5977,532,197.5977,536,193.5977" style="stroke:#181818;stroke-width:1.0;"/><line style="stroke:#181818;stroke-width:1.0;" x1="63" x2="538" y1="193.5977" y2="193.5977"/><text fill="#000000" font-family="sans-serif" font-size="13" font-weight="bold" lengthAdjust="spacing" textLength="9" x="70" y="188.8555">1</text><text fill="#000000" font-family="sans-serif" font-size="13" lengthAdjust="spacing" textLength="306" x="83" y="188.8555">Connect WS /api/v1/scoreboard/live?token=JWT</text><line style="stroke:#181818;stroke-width:1.0;" x1="544" x2="586" y1="222.9082" y2="222.9082"/><line style="stroke:#181818;stroke-width:1.0;" x1="586" x2="586" y1="222.9082" y2="235.9082"/><line style="stroke:#181818;stroke-width:1.0;" x1="545" x2="586" y1="235.9082" y2="235.9082"/><polygon fill="#181818" points="555,231.9082,545,235.9082,555,239.9082,551,235.9082" style="stroke:#181818;stroke-width:1.0;"/><text fill="#000000" font-family="sans-serif" font-size="13" font-weight="bold" lengthAdjust="spacing" textLength="9" x="551" y="218.166">2</text><text fill="#000000" font-family="sans-serif" font-size="13" lengthAdjust="spacing" textLength="143" x="564" y="218.166">(Optional) Validate JWT</text><polygon fill="#181818" points="74,261.2188,64,265.2188,74,269.2188,70,265.2188" style="stroke:#181818;stroke-width:1.0;"/><line style="stroke:#181818;stroke-width:1.0;stroke-dasharray:2.0,2.0;" x1="68" x2="543" y1="265.2188" y2="265.2188"/><text fill="#000000" font-family="sans-serif" font-size="13" font-weight="bold" lengthAdjust="spacing" textLength="9" x="80" y="260.4766">3</text><text fill="#000000" font-family="sans-serif" font-size="13" lengthAdjust="spacing" textLength="312" x="93" y="260.4766">Connection established (101 Switching Protocols)</text><polygon fill="#181818" points="74,290.5293,64,294.5293,74,298.5293,70,294.5293" style="stroke:#181818;stroke-width:1.0;"/><line style="stroke:#181818;stroke-width:1.0;" x1="68" x2="543" y1="294.5293" y2="294.5293"/><text fill="#000000" font-family="sans-serif" font-size="13" font-weight="bold" lengthAdjust="spacing" textLength="9" x="80" y="289.7871">4</text><text fill="#000000" font-family="sans-serif" font-size="13" lengthAdjust="spacing" textLength="232" x="93" y="289.7871">Initial leaderboard snapshot (Top 10)</text><polygon fill="#181818" points="532,319.8398,542,323.8398,532,327.8398,536,323.8398" style="stroke:#181818;stroke-width:1.0;"/><line style="stroke:#181818;stroke-width:1.0;" x1="132" x2="538" y1="323.8398" y2="323.8398"/><text fill="#000000" font-family="sans-serif" font-size="13" font-weight="bold" lengthAdjust="spacing" textLength="9" x="139" y="319.0977">5</text><text fill="#000000" font-family="sans-serif" font-size="13" lengthAdjust="spacing" textLength="306" x="152" y="319.0977">Connect WS /api/v1/scoreboard/live?token=JWT</text><polygon fill="#181818" points="143,349.1504,133,353.1504,143,357.1504,139,353.1504" style="stroke:#181818;stroke-width:1.0;"/><line style="stroke:#181818;stroke-width:1.0;stroke-dasharray:2.0,2.0;" x1="137" x2="543" y1="353.1504" y2="353.1504"/><text fill="#000000" font-family="sans-serif" font-size="13" font-weight="bold" lengthAdjust="spacing" textLength="9" x="149" y="348.4082">6</text><text fill="#000000" font-family="sans-serif" font-size="13" lengthAdjust="spacing" textLength="184" x="162" y="348.4082">Connection established (101)</text><polygon fill="#181818" points="143,378.4609,133,382.4609,143,386.4609,139,382.4609" style="stroke:#181818;stroke-width:1.0;"/><line style="stroke:#181818;stroke-width:1.0;" x1="137" x2="543" y1="382.4609" y2="382.4609"/><text fill="#000000" font-family="sans-serif" font-size="13" font-weight="bold" lengthAdjust="spacing" textLength="9" x="149" y="377.7188">7</text><text fill="#000000" font-family="sans-serif" font-size="13" lengthAdjust="spacing" textLength="176" x="162" y="377.7188">Initial leaderboard snapshot</text><polygon fill="#181818" points="532,407.7715,542,411.7715,532,415.7715,536,411.7715" style="stroke:#181818;stroke-width:1.0;"/><line style="stroke:#181818;stroke-width:1.0;" x1="201" x2="538" y1="411.7715" y2="411.7715"/><text fill="#000000" font-family="sans-serif" font-size="13" font-weight="bold" lengthAdjust="spacing" textLength="9" x="208" y="407.0293">8</text><text fill="#000000" font-family="sans-serif" font-size="13" lengthAdjust="spacing" textLength="306" x="221" y="407.0293">Connect WS /api/v1/scoreboard/live?token=JWT</text><polygon fill="#181818" points="212,437.082,202,441.082,212,445.082,208,441.082" style="stroke:#181818;stroke-width:1.0;"/><line style="stroke:#181818;stroke-width:1.0;stroke-dasharray:2.0,2.0;" x1="206" x2="543" y1="441.082" y2="441.082"/><text fill="#000000" font-family="sans-serif" font-size="13" font-weight="bold" lengthAdjust="spacing" textLength="9" x="218" y="436.3398">9</text><text fill="#000000" font-family="sans-serif" font-size="13" lengthAdjust="spacing" textLength="184" x="231" y="436.3398">Connection established (101)</text><polygon fill="#181818" points="212,466.3926,202,470.3926,212,474.3926,208,470.3926" style="stroke:#181818;stroke-width:1.0;"/><line style="stroke:#181818;stroke-width:1.0;" x1="206" x2="543" y1="470.3926" y2="470.3926"/><text fill="#000000" font-family="sans-serif" font-size="13" font-weight="bold" lengthAdjust="spacing" textLength="18" x="218" y="465.6504">10</text><text fill="#000000" font-family="sans-serif" font-size="13" lengthAdjust="spacing" textLength="176" x="240" y="465.6504">Initial leaderboard snapshot</text><path d="M444,483.3926 L444,523.3926 L643,523.3926 L643,493.3926 L633,483.3926 L444,483.3926 " fill="#FEFFDD" style="stroke:#181818;stroke-width:0.5;"/><path d="M633,483.3926 L633,493.3926 L643,493.3926 L633,483.3926 " fill="#FEFFDD" style="stroke:#181818;stroke-width:0.5;"/><text fill="#000000" font-family="sans-serif" font-size="13" lengthAdjust="spacing" textLength="176" x="450" y="500.9609">WebSocket Server maintains</text><text fill="#000000" font-family="sans-serif" font-size="13" lengthAdjust="spacing" textLength="178" x="450" y="516.2715">a pool of active connections</text><rect fill="#EEEEEE" height="3" style="stroke:#EEEEEE;stroke-width:1.0;" width="1104" x="0" y="549.6689"/><line style="stroke:#000000;stroke-width:1.0;" x1="0" x2="1104" y1="549.6689" y2="549.6689"/><line style="stroke:#000000;stroke-width:1.0;" x1="0" x2="1104" y1="552.6689" y2="552.6689"/><rect fill="#EEEEEE" height="23.3105" style="stroke:#000000;stroke-width:2.0;" width="191" x="456.5" y="539.0137"/><text fill="#000000" font-family="sans-serif" font-size="13" font-weight="bold" lengthAdjust="spacing" textLength="173" x="462.5" y="555.582">Live Update Broadcasting</text><path d="M13,579.3242 L87,579.3242 L87,586.6348 L77,596.6348 L13,596.6348 L13,579.3242 " fill="#EEEEEE" style="stroke:#000000;stroke-width:1.5;"/><rect fill="none" height="318.7266" style="stroke:#000000;stroke-width:1.5;" width="1081" x="13" y="579.3242"/><text fill="#000000" font-family="sans-serif" font-size="13" font-weight="bold" lengthAdjust="spacing" textLength="29" x="28" y="592.8926">loop</text><text fill="#000000" font-family="sans-serif" font-size="11" font-weight="bold" lengthAdjust="spacing" textLength="119" x="102" y="591.959">[Continuous updates]</text><polygon fill="#181818" points="776,629.2559,766,633.2559,776,637.2559,772,633.2559" style="stroke:#181818;stroke-width:1.0;"/><line style="stroke:#181818;stroke-width:1.0;" x1="770" x2="1031" y1="633.2559" y2="633.2559"/><text fill="#000000" font-family="sans-serif" font-size="13" font-weight="bold" lengthAdjust="spacing" textLength="18" x="782" y="620.8584">11</text><text fill="#000000" font-family="sans-serif" font-size="13" lengthAdjust="spacing" textLength="176" x="804" y="613.2031">PUBLISH leaderboard:update</text><text fill="#000000" font-family="sans-serif" font-size="13" lengthAdjust="spacing" textLength="221" x="804" y="628.5137">{ userId, newScore, changedRanks }</text><polygon fill="#181818" points="555,658.5664,545,662.5664,555,666.5664,551,662.5664" style="stroke:#181818;stroke-width:1.0;"/><line style="stroke:#181818;stroke-width:1.0;" x1="549" x2="764" y1="662.5664" y2="662.5664"/><text fill="#000000" font-family="sans-serif" font-size="13" font-weight="bold" lengthAdjust="spacing" textLength="18" x="561" y="657.8242">12</text><text fill="#000000" font-family="sans-serif" font-size="13" lengthAdjust="spacing" textLength="90" x="583" y="657.8242">Event received</text><line style="stroke:#181818;stroke-width:1.0;" x1="544" x2="586" y1="707.1875" y2="707.1875"/><line style="stroke:#181818;stroke-width:1.0;" x1="586" x2="586" y1="707.1875" y2="720.1875"/><line style="stroke:#181818;stroke-width:1.0;" x1="545" x2="586" y1="720.1875" y2="720.1875"/><polygon fill="#181818" points="555,716.1875,545,720.1875,555,724.1875,551,720.1875" style="stroke:#181818;stroke-width:1.0;"/><text fill="#000000" font-family="sans-serif" font-size="13" font-weight="bold" lengthAdjust="spacing" textLength="18" x="551" y="694.79">13</text><text fill="#000000" font-family="sans-serif" font-size="13" lengthAdjust="spacing" textLength="151" x="573" y="687.1348">Debounce (&lt;=500ms) &amp;</text><text fill="#000000" font-family="sans-serif" font-size="13" lengthAdjust="spacing" textLength="169" x="573" y="702.4453">process differential update</text><path d="M23,735.1875 L91,735.1875 L91,742.498 L81,752.498 L23,752.498 L23,735.1875 " fill="#EEEEEE" style="stroke:#000000;stroke-width:1.5;"/><rect fill="none" height="105.2422" style="stroke:#000000;stroke-width:1.5;" width="598.5" x="23" y="735.1875"/><text fill="#000000" font-family="sans-serif" font-size="13" font-weight="bold" lengthAdjust="spacing" textLength="23" x="38" y="748.7559">par</text><text fill="#000000" font-family="sans-serif" font-size="11" font-weight="bold" lengthAdjust="spacing" textLength="196" x="106" y="747.8223">[Broadcast to all connected clients]</text><polygon fill="#181818" points="74,769.8086,64,773.8086,74,777.8086,70,773.8086" style="stroke:#181818;stroke-width:1.0;"/><line style="stroke:#181818;stroke-width:1.0;" x1="68" x2="543" y1="773.8086" y2="773.8086"/><text fill="#000000" font-family="sans-serif" font-size="13" font-weight="bold" lengthAdjust="spacing" textLength="18" x="80" y="769.0664">14</text><text fill="#000000" font-family="sans-serif" font-size="13" lengthAdjust="spacing" textLength="163" x="102" y="769.0664">leaderboard:update { diff }</text><polygon fill="#181818" points="143,799.1191,133,803.1191,143,807.1191,139,803.1191" style="stroke:#181818;stroke-width:1.0;"/><line style="stroke:#181818;stroke-width:1.0;" x1="137" x2="543" y1="803.1191" y2="803.1191"/><text fill="#000000" font-family="sans-serif" font-size="13" font-weight="bold" lengthAdjust="spacing" textLength="18" x="149" y="798.377">15</text><text fill="#000000" font-family="sans-serif" font-size="13" lengthAdjust="spacing" textLength="163" x="171" y="798.377">leaderboard:update { diff }</text><polygon fill="#181818" points="212,828.4297,202,832.4297,212,836.4297,208,832.4297" style="stroke:#181818;stroke-width:1.0;"/><line style="stroke:#181818;stroke-width:1.0;" x1="206" x2="543" y1="832.4297" y2="832.4297"/><text fill="#000000" font-family="sans-serif" font-size="13" font-weight="bold" lengthAdjust="spacing" textLength="18" x="218" y="827.6875">16</text><text fill="#000000" font-family="sans-serif" font-size="13" lengthAdjust="spacing" textLength="163" x="240" y="827.6875">leaderboard:update { diff }</text><path d="M549,852.4297 L549,892.4297 L798,892.4297 L798,862.4297 L788,852.4297 L549,852.4297 " fill="#FEFFDD" style="stroke:#181818;stroke-width:0.5;"/><path d="M788,852.4297 L788,862.4297 L798,862.4297 L788,852.4297 " fill="#FEFFDD" style="stroke:#181818;stroke-width:0.5;"/><text fill="#000000" font-family="sans-serif" font-size="13" lengthAdjust="spacing" textLength="190" x="555" y="869.998">Only send differential updates</text><text fill="#000000" font-family="sans-serif" font-size="13" lengthAdjust="spacing" textLength="228" x="555" y="885.3086">(changed ranks) not full leaderboard</text><rect fill="#EEEEEE" height="3" style="stroke:#EEEEEE;stroke-width:1.0;" width="1104" x="0" y="925.7061"/><line style="stroke:#000000;stroke-width:1.0;" x1="0" x2="1104" y1="925.7061" y2="925.7061"/><line style="stroke:#000000;stroke-width:1.0;" x1="0" x2="1104" y1="928.7061" y2="928.7061"/><rect fill="#EEEEEE" height="23.3105" style="stroke:#000000;stroke-width:2.0;" width="166" x="469" y="915.0508"/><text fill="#000000" font-family="sans-serif" font-size="13" font-weight="bold" lengthAdjust="spacing" textLength="148" x="475" y="931.6191">Heartbeat Mechanism</text><path d="M13,955.3613 L87,955.3613 L87,962.6719 L77,972.6719 L13,972.6719 L13,955.3613 " fill="#EEEEEE" style="stroke:#000000;stroke-width:1.5;"/><rect fill="none" height="490.2129" style="stroke:#000000;stroke-width:1.5;" width="959" x="13" y="955.3613"/><text fill="#000000" font-family="sans-serif" font-size="13" font-weight="bold" lengthAdjust="spacing" textLength="29" x="28" y="968.9297">loop</text><text fill="#000000" font-family="sans-serif" font-size="11" font-weight="bold" lengthAdjust="spacing" textLength="106" x="102" y="967.9961">[Every 30 seconds]</text><path d="M23,979.6719 L91,979.6719 L91,986.9824 L81,996.9824 L23,996.9824 L23,979.6719 " fill="#EEEEEE" style="stroke:#000000;stroke-width:1.5;"/><rect fill="none" height="105.2422" style="stroke:#000000;stroke-width:1.5;" width="598.5" x="23" y="979.6719"/><text fill="#000000" font-family="sans-serif" font-size="13" font-weight="bold" lengthAdjust="spacing" textLength="23" x="38" y="993.2402">par</text><text fill="#000000" font-family="sans-serif" font-size="11" font-weight="bold" lengthAdjust="spacing" textLength="92" x="106" y="992.3066">[Ping all clients]</text><polygon fill="#181818" points="74,1014.293,64,1018.293,74,1022.293,70,1018.293" style="stroke:#181818;stroke-width:1.0;"/><line style="stroke:#181818;stroke-width:1.0;" x1="68" x2="543" y1="1018.293" y2="1018.293"/><text fill="#000000" font-family="sans-serif" font-size="13" font-weight="bold" lengthAdjust="spacing" textLength="18" x="80" y="1013.5508">17</text><text fill="#000000" font-family="sans-serif" font-size="13" lengthAdjust="spacing" textLength="30" x="102" y="1013.5508">PING</text><polygon fill="#181818" points="143,1043.6035,133,1047.6035,143,1051.6035,139,1047.6035" style="stroke:#181818;stroke-width:1.0;"/><line style="stroke:#181818;stroke-width:1.0;" x1="137" x2="543" y1="1047.6035" y2="1047.6035"/><text fill="#000000" font-family="sans-serif" font-size="13" font-weight="bold" lengthAdjust="spacing" textLength="18" x="149" y="1042.8613">18</text><text fill="#000000" font-family="sans-serif" font-size="13" lengthAdjust="spacing" textLength="30" x="171" y="1042.8613">PING</text><polygon fill="#181818" points="212,1072.9141,202,1076.9141,212,1080.9141,208,1076.9141" style="stroke:#181818;stroke-width:1.0;"/><line style="stroke:#181818;stroke-width:1.0;" x1="206" x2="543" y1="1076.9141" y2="1076.9141"/><text fill="#000000" font-family="sans-serif" font-size="13" font-weight="bold" lengthAdjust="spacing" textLength="18" x="218" y="1072.1719">19</text><text fill="#000000" font-family="sans-serif" font-size="13" lengthAdjust="spacing" textLength="30" x="240" y="1072.1719">PING</text><path d="M23,1098.9141 L85,1098.9141 L85,1106.2246 L75,1116.2246 L23,1116.2246 L23,1098.9141 " fill="#EEEEEE" style="stroke:#000000;stroke-width:1.5;"/><rect fill="none" height="103.8867" style="stroke:#000000;stroke-width:1.5;" width="939" x="23" y="1098.9141"/><text fill="#000000" font-family="sans-serif" font-size="13" font-weight="bold" lengthAdjust="spacing" textLength="17" x="38" y="1112.4824">alt</text><text fill="#000000" font-family="sans-serif" font-size="11" font-weight="bold" lengthAdjust="spacing" textLength="108" x="100" y="1111.5488">[Client A responds]</text><polygon fill="#181818" points="532,1133.5352,542,1137.5352,532,1141.5352,536,1137.5352" style="stroke:#181818;stroke-width:1.0;"/><line style="stroke:#181818;stroke-width:1.0;" x1="63" x2="538" y1="1137.5352" y2="1137.5352"/><text fill="#000000" font-family="sans-serif" font-size="13" font-weight="bold" lengthAdjust="spacing" textLength="18" x="70" y="1132.793">20</text><text fill="#000000" font-family="sans-serif" font-size="13" lengthAdjust="spacing" textLength="36" x="92" y="1132.793">PONG</text><line style="stroke:#000000;stroke-width:1.0;stroke-dasharray:2.0,2.0;" x1="23" x2="962" y1="1146.5352" y2="1146.5352"/><text fill="#000000" font-family="sans-serif" font-size="11" font-weight="bold" lengthAdjust="spacing" textLength="87" x="28" y="1157.1699">[Timeout (10s)]</text><line style="stroke:#181818;stroke-width:1.0;" x1="544" x2="586" y1="1181.8008" y2="1181.8008"/><line style="stroke:#181818;stroke-width:1.0;" x1="586" x2="586" y1="1181.8008" y2="1194.8008"/><line style="stroke:#181818;stroke-width:1.0;" x1="545" x2="586" y1="1194.8008" y2="1194.8008"/><polygon fill="#181818" points="555,1190.8008,545,1194.8008,555,1198.8008,551,1194.8008" style="stroke:#181818;stroke-width:1.0;"/><text fill="#000000" font-family="sans-serif" font-size="13" font-weight="bold" lengthAdjust="spacing" textLength="18" x="551" y="1177.0586">21</text><text fill="#000000" font-family="sans-serif" font-size="13" lengthAdjust="spacing" textLength="185" x="573" y="1177.0586">Close connection for Client A</text><path d="M770,1168.9902 L770,1193.9902 L947,1193.9902 L947,1178.9902 L937,1168.9902 L770,1168.9902 " fill="#FEFFDD" style="stroke:#181818;stroke-width:0.5;"/><path d="M937,1168.9902 L937,1178.9902 L947,1178.9902 L937,1168.9902 " fill="#FEFFDD" style="stroke:#181818;stroke-width:0.5;"/><text fill="#000000" font-family="sans-serif" font-size="13" lengthAdjust="spacing" textLength="156" x="776" y="1186.5586">Remove from active pool</text><path d="M93,1216.8008 L155,1216.8008 L155,1224.1113 L145,1234.1113 L93,1234.1113 L93,1216.8008 " fill="#EEEEEE" style="stroke:#000000;stroke-width:1.5;"/><rect fill="none" height="103.8867" style="stroke:#000000;stroke-width:1.5;" width="675" x="93" y="1216.8008"/><text fill="#000000" font-family="sans-serif" font-size="13" font-weight="bold" lengthAdjust="spacing" textLength="17" x="108" y="1230.3691">alt</text><text fill="#000000" font-family="sans-serif" font-size="11" font-weight="bold" lengthAdjust="spacing" textLength="107" x="170" y="1229.4355">[Client B responds]</text><polygon fill="#181818" points="532,1251.4219,542,1255.4219,532,1259.4219,536,1255.4219" style="stroke:#181818;stroke-width:1.0;"/><line style="stroke:#181818;stroke-width:1.0;" x1="132" x2="538" y1="1255.4219" y2="1255.4219"/><text fill="#000000" font-family="sans-serif" font-size="13" font-weight="bold" lengthAdjust="spacing" textLength="18" x="139" y="1250.6797">22</text><text fill="#000000" font-family="sans-serif" font-size="13" lengthAdjust="spacing" textLength="36" x="161" y="1250.6797">PONG</text><line style="stroke:#000000;stroke-width:1.0;stroke-dasharray:2.0,2.0;" x1="93" x2="768" y1="1264.4219" y2="1264.4219"/><text fill="#000000" font-family="sans-serif" font-size="11" font-weight="bold" lengthAdjust="spacing" textLength="87" x="98" y="1275.0566">[Timeout (10s)]</text><line style="stroke:#181818;stroke-width:1.0;" x1="544" x2="586" y1="1299.6875" y2="1299.6875"/><line style="stroke:#181818;stroke-width:1.0;" x1="586" x2="586" y1="1299.6875" y2="1312.6875"/><line style="stroke:#181818;stroke-width:1.0;" x1="545" x2="586" y1="1312.6875" y2="1312.6875"/><polygon fill="#181818" points="555,1308.6875,545,1312.6875,555,1316.6875,551,1312.6875" style="stroke:#181818;stroke-width:1.0;"/><text fill="#000000" font-family="sans-serif" font-size="13" font-weight="bold" lengthAdjust="spacing" textLength="18" x="551" y="1294.9453">23</text><text fill="#000000" font-family="sans-serif" font-size="13" lengthAdjust="spacing" textLength="183" x="573" y="1294.9453">Close connection for Client B</text><path d="M161,1334.6875 L223,1334.6875 L223,1341.998 L213,1351.998 L161,1351.998 L161,1334.6875 " fill="#EEEEEE" style="stroke:#000000;stroke-width:1.5;"/><rect fill="none" height="103.8867" style="stroke:#000000;stroke-width:1.5;" width="609" x="161" y="1334.6875"/><text fill="#000000" font-family="sans-serif" font-size="13" font-weight="bold" lengthAdjust="spacing" textLength="17" x="176" y="1348.2559">alt</text><text fill="#000000" font-family="sans-serif" font-size="11" font-weight="bold" lengthAdjust="spacing" textLength="108" x="238" y="1347.3223">[Client C responds]</text><polygon fill="#181818" points="532,1369.3086,542,1373.3086,532,1377.3086,536,1373.3086" style="stroke:#181818;stroke-width:1.0;"/><line style="stroke:#181818;stroke-width:1.0;" x1="201" x2="538" y1="1373.3086" y2="1373.3086"/><text fill="#000000" font-family="sans-serif" font-size="13" font-weight="bold" lengthAdjust="spacing" textLength="18" x="208" y="1368.5664">24</text><text fill="#000000" font-family="sans-serif" font-size="13" lengthAdjust="spacing" textLength="36" x="230" y="1368.5664">PONG</text><line style="stroke:#000000;stroke-width:1.0;stroke-dasharray:2.0,2.0;" x1="161" x2="770" y1="1382.3086" y2="1382.3086"/><text fill="#000000" font-family="sans-serif" font-size="11" font-weight="bold" lengthAdjust="spacing" textLength="87" x="166" y="1392.9434">[Timeout (10s)]</text><line style="stroke:#181818;stroke-width:1.0;" x1="544" x2="586" y1="1417.5742" y2="1417.5742"/><line style="stroke:#181818;stroke-width:1.0;" x1="586" x2="586" y1="1417.5742" y2="1430.5742"/><line style="stroke:#181818;stroke-width:1.0;" x1="545" x2="586" y1="1430.5742" y2="1430.5742"/><polygon fill="#181818" points="555,1426.5742,545,1430.5742,555,1434.5742,551,1430.5742" style="stroke:#181818;stroke-width:1.0;"/><text fill="#000000" font-family="sans-serif" font-size="13" font-weight="bold" lengthAdjust="spacing" textLength="18" x="551" y="1412.832">25</text><text fill="#000000" font-family="sans-serif" font-size="13" lengthAdjust="spacing" textLength="185" x="573" y="1412.832">Close connection for Client C</text><rect fill="#EEEEEE" height="3" style="stroke:#EEEEEE;stroke-width:1.0;" width="1104" x="0" y="1473.2295"/><line style="stroke:#000000;stroke-width:1.0;" x1="0" x2="1104" y1="1473.2295" y2="1473.2295"/><line style="stroke:#000000;stroke-width:1.0;" x1="0" x2="1104" y1="1476.2295" y2="1476.2295"/><rect fill="#EEEEEE" height="23.3105" style="stroke:#000000;stroke-width:2.0;" width="156" x="474" y="1462.5742"/><text fill="#000000" font-family="sans-serif" font-size="13" font-weight="bold" lengthAdjust="spacing" textLength="138" x="480" y="1479.1426">Client Disconnection</text><polygon fill="#181818" points="532,1513.1953,542,1517.1953,532,1521.1953,536,1517.1953" style="stroke:#181818;stroke-width:1.0;"/><line style="stroke:#181818;stroke-width:1.0;" x1="63" x2="538" y1="1517.1953" y2="1517.1953"/><text fill="#000000" font-family="sans-serif" font-size="13" font-weight="bold" lengthAdjust="spacing" textLength="18" x="70" y="1512.4531">26</text><text fill="#000000" font-family="sans-serif" font-size="13" lengthAdjust="spacing" textLength="109" x="92" y="1512.4531">Close connection</text><line style="stroke:#181818;stroke-width:1.0;" x1="544" x2="586" y1="1546.5059" y2="1546.5059"/><line style="stroke:#181818;stroke-width:1.0;" x1="586" x2="586" y1="1546.5059" y2="1559.5059"/><line style="stroke:#181818;stroke-width:1.0;" x1="545" x2="586" y1="1559.5059" y2="1559.5059"/><polygon fill="#181818" points="555,1555.5059,545,1559.5059,555,1563.5059,551,1559.5059" style="stroke:#181818;stroke-width:1.0;"/><text fill="#000000" font-family="sans-serif" font-size="13" font-weight="bold" lengthAdjust="spacing" textLength="18" x="551" y="1541.7637">27</text><text fill="#000000" font-family="sans-serif" font-size="13" lengthAdjust="spacing" textLength="169" x="573" y="1541.7637">Remove Client A from pool</text><polygon fill="#181818" points="74,1584.8164,64,1588.8164,74,1592.8164,70,1588.8164" style="stroke:#181818;stroke-width:1.0;"/><line style="stroke:#181818;stroke-width:1.0;stroke-dasharray:2.0,2.0;" x1="68" x2="543" y1="1588.8164" y2="1588.8164"/><text fill="#000000" font-family="sans-serif" font-size="13" font-weight="bold" lengthAdjust="spacing" textLength="18" x="80" y="1584.0742">28</text><text fill="#000000" font-family="sans-serif" font-size="13" lengthAdjust="spacing" textLength="161" x="102" y="1584.0742">Connection closed (1000)</text><path d="M5,1601.8164 L5,1641.8164 L259,1641.8164 L259,1611.8164 L249,1601.8164 L5,1601.8164 " fill="#FEFFDD" style="stroke:#181818;stroke-width:0.5;"/><path d="M249,1601.8164 L249,1611.8164 L259,1611.8164 L249,1601.8164 " fill="#FEFFDD" style="stroke:#181818;stroke-width:0.5;"/><text fill="#000000" font-family="sans-serif" font-size="13" lengthAdjust="spacing" textLength="190" x="11" y="1619.3848">Clients can reconnect anytime</text><text fill="#000000" font-family="sans-serif" font-size="13" lengthAdjust="spacing" textLength="233" x="11" y="1634.6953">and receive current leaderboard state</text><!--SRC=[jLN1RXen4BtlLumuH20bWgZg1PLMh1CrL4b1RD9SSZ7U8LWnzihs9egY_dl7NbWMIaYhA4Y9X1dFl7dptjXBhn1kSPOPyO0UBkKZmasHSuyEZk02kVKpv1xQLwNoyeGfYTf3QWtF1NU-a_3I6rqkPsYJX0jlBBHMGSCMS0Tik7ESLiVfpZ6hZbbIK4afPC7fiBL1bg5zH1k3RhCi4KOf55uQxQ0rnLmwc9IpRbREOiZq_6oKRQVAXB4OqqY1CIXZu-bvaWm6m8pMLJQOBBX360mIDeIJhw5MV_qpVO4kBsJtyRJhGhQPuJRlAkBicpSFg0S_RgyJkb5VR8-Ba9Ih3lpYIWPQeOwX83RiDskZytocf5jW3ktJtYbaJzABXTJtCB766shQTTO5mjsHbbvo1GfvZZR20QTvuHQ6HdPj2ZZjTPA4fUze9PHA3yBSG4eFGo8ax9r8s3yYOMyXqOPcOKXIKKwxEeCbbzhJdqiu5COeC7CWmGPxYBg-Ir3d43955JNCit5861wfIHaQ1Y6dxwKf7PILnnAWJzHXG1rLsuV9JNevoYwQmFjL_9r-WTAX7UN7eF4fIleOn8BhUyodN3yu-1rJnamrrUUFmM4M1HB2F0OqLNf6d9TQ8BI_33xtUalNWQCxNLWZq3d8vNoEbX84BYiOCKFyHmxRj0hU05TgJH3DH4HlLrqsgWRf_jqSlCHQgmwQuUd_XREtmsbkcoQY5AoyN_WmvI27S3hMwXbS6F0U1ggMsYlcmGRgEo4Hp4kr9RbrkKeceMwGocQnNc588jsoLWbDopx3fnuL9oPpLnCz2LgA1BzEwsJqy_i-_lQUiyRv5YDSqK9URN7IZIjg7E7Js8oJyVgwegrvBPTeIX-iI7jgfrfbUcLSqq4mfoTWNQc-iHb87wQu99V2t9hbse31ZmSnftimfn-2EJs8W-t1mJu41wjnh1Ms-k5CkiQDdMTj9-7MqxNYlLP1741a_fN7IuHiSGttmfkpsQziU4pFUfN8WU0wRABLykVwsLFZ2IU3hFOJYD86istlRSyhzrGs-WC0]--></g></svg>