<?xml version="1.0" encoding="us-ascii" standalone="no"?><svg xmlns="http://www.w3.org/2000/svg" xmlns:xlink="http://www.w3.org/1999/xlink" contentStyleType="text/css" height="1527px" preserveAspectRatio="none" style="width:1710px;height:1527px;background:#FFFFFF;" version="1.1" viewBox="0 0 1710 1527" width="1710px" zoomAndPan="magnify"><defs/><g><text fill="#000000" font-family="sans-serif" font-size="14" font-weight="bold" lengthAdjust="spacing" textLength="596" x="553" y="28.5352">Score Update - Full Flow (JWT + Single-Use Action Token + WebSocket Broadcast)</text><rect fill="none" height="833.5156" style="stroke:#000000;stroke-width:1.5;" width="1683" x="10" y="595.6348"/><rect fill="none" height="757.584" style="stroke:#000000;stroke-width:1.5;" width="1663" x="20" y="664.5664"/><rect fill="none" height="652.6973" style="stroke:#000000;stroke-width:1.5;" width="1643" x="30" y="762.4531"/><rect fill="none" height="518.5" style="stroke:#000000;stroke-width:1.5;" width="1623" x="40" y="889.6504"/><rect fill="none" height="400.6133" style="stroke:#000000;stroke-width:1.5;" width="1603" x="50" y="1000.5371"/><line style="stroke:#181818;stroke-width:0.5;stroke-dasharray:5.0,5.0;" x1="83" x2="83" y1="118.9766" y2="1446.1504"/><line style="stroke:#181818;stroke-width:0.5;stroke-dasharray:5.0,5.0;" x1="428.5" x2="428.5" y1="118.9766" y2="1446.1504"/><line style="stroke:#181818;stroke-width:0.5;stroke-dasharray:5.0,5.0;" x1="598.5" x2="598.5" y1="118.9766" y2="1446.1504"/><line style="stroke:#181818;stroke-width:0.5;stroke-dasharray:5.0,5.0;" x1="745" x2="745" y1="118.9766" y2="1446.1504"/><line style="stroke:#181818;stroke-width:0.5;stroke-dasharray:5.0,5.0;" x1="1018.5" x2="1018.5" y1="118.9766" y2="1446.1504"/><line style="stroke:#181818;stroke-width:0.5;stroke-dasharray:5.0,5.0;" x1="1191.5" x2="1191.5" y1="118.9766" y2="1446.1504"/><line style="stroke:#181818;stroke-width:0.5;stroke-dasharray:5.0,5.0;" x1="1358.5" x2="1358.5" y1="118.9766" y2="1446.1504"/><line style="stroke:#181818;stroke-width:0.5;stroke-dasharray:5.0,5.0;" x1="1591" x2="1591" y1="118.9766" y2="1446.1504"/><text fill="#000000" font-family="sans-serif" font-size="14" lengthAdjust="spacing" textLength="40" x="60" y="116.0234">Client</text><ellipse cx="83" cy="50.9883" fill="#E2E2F0" rx="8" ry="8" style="stroke:#181818;stroke-width:0.5;"/><path d="M83,58.9883 L83,85.9883 M70,66.9883 L96,66.9883 M83,85.9883 L70,100.9883 M83,85.9883 L96,100.9883 " fill="none" style="stroke:#181818;stroke-width:0.5;"/><text fill="#000000" font-family="sans-serif" font-size="14" lengthAdjust="spacing" textLength="40" x="60" y="1458.6855">Client</text><ellipse cx="83" cy="1470.1387" fill="#E2E2F0" rx="8" ry="8" style="stroke:#181818;stroke-width:0.5;"/><path d="M83,1478.1387 L83,1505.1387 M70,1486.1387 L96,1486.1387 M83,1505.1387 L70,1520.1387 M83,1505.1387 L96,1520.1387 " fill="none" style="stroke:#181818;stroke-width:0.5;"/><rect fill="#E2E2F0" height="30.4883" rx="2.5" ry="2.5" style="stroke:#181818;stroke-width:0.5;" width="97" x="380.5" y="87.4883"/><text fill="#000000" font-family="sans-serif" font-size="14" lengthAdjust="spacing" textLength="83" x="387.5" y="108.0234">API Gateway</text><rect fill="#E2E2F0" height="30.4883" rx="2.5" ry="2.5" style="stroke:#181818;stroke-width:0.5;" width="97" x="380.5" y="1445.1504"/><text fill="#000000" font-family="sans-serif" font-size="14" lengthAdjust="spacing" textLength="83" x="387.5" y="1465.6855">API Gateway</text><rect fill="#E2E2F0" height="30.4883" rx="2.5" ry="2.5" style="stroke:#181818;stroke-width:0.5;" width="99" x="549.5" y="87.4883"/><text fill="#000000" font-family="sans-serif" font-size="14" lengthAdjust="spacing" textLength="85" x="556.5" y="108.0234">Auth Service</text><rect fill="#E2E2F0" height="30.4883" rx="2.5" ry="2.5" style="stroke:#181818;stroke-width:0.5;" width="99" x="549.5" y="1445.1504"/><text fill="#000000" font-family="sans-serif" font-size="14" lengthAdjust="spacing" textLength="85" x="556.5" y="1465.6855">Auth Service</text><rect fill="#E2E2F0" height="30.4883" rx="2.5" ry="2.5" style="stroke:#181818;stroke-width:0.5;" width="104" x="693" y="87.4883"/><text fill="#000000" font-family="sans-serif" font-size="14" lengthAdjust="spacing" textLength="90" x="700" y="108.0234">Score Service</text><rect fill="#E2E2F0" height="30.4883" rx="2.5" ry="2.5" style="stroke:#181818;stroke-width:0.5;" width="104" x="693" y="1445.1504"/><text fill="#000000" font-family="sans-serif" font-size="14" lengthAdjust="spacing" textLength="90" x="700" y="1465.6855">Score Service</text><text fill="#000000" font-family="sans-serif" font-size="14" lengthAdjust="spacing" textLength="63" x="984.5" y="116.0234">Database</text><path d="M1001,66.4883 C1001,56.4883 1019,56.4883 1019,56.4883 C1019,56.4883 1037,56.4883 1037,66.4883 L1037,92.4883 C1037,102.4883 1019,102.4883 1019,102.4883 C1019,102.4883 1001,102.4883 1001,92.4883 L1001,66.4883 " fill="#E2E2F0" style="stroke:#181818;stroke-width:1.5;"/><path d="M1001,66.4883 C1001,76.4883 1019,76.4883 1019,76.4883 C1019,76.4883 1037,76.4883 1037,66.4883 " fill="none" style="stroke:#181818;stroke-width:1.5;"/><text fill="#000000" font-family="sans-serif" font-size="14" lengthAdjust="spacing" textLength="63" x="984.5" y="1458.6855">Database</text><path d="M1001,1471.6387 C1001,1461.6387 1019,1461.6387 1019,1461.6387 C1019,1461.6387 1037,1461.6387 1037,1471.6387 L1037,1497.6387 C1037,1507.6387 1019,1507.6387 1019,1507.6387 C1019,1507.6387 1001,1507.6387 1001,1497.6387 L1001,1471.6387 " fill="#E2E2F0" style="stroke:#181818;stroke-width:1.5;"/><path d="M1001,1471.6387 C1001,1481.6387 1019,1481.6387 1019,1481.6387 C1019,1481.6387 1037,1481.6387 1037,1471.6387 " fill="none" style="stroke:#181818;stroke-width:1.5;"/><rect fill="#E2E2F0" height="30.4883" style="stroke:#181818;stroke-width:0.5;" width="51" x="1168.5" y="83.4883"/><rect fill="#E2E2F0" height="30.4883" style="stroke:#181818;stroke-width:0.5;" width="51" x="1164.5" y="87.4883"/><text fill="#000000" font-family="sans-serif" font-size="14" lengthAdjust="spacing" textLength="37" x="1171.5" y="108.0234">Redis</text><rect fill="#E2E2F0" height="30.4883" style="stroke:#181818;stroke-width:0.5;" width="51" x="1168.5" y="1445.1504"/><rect fill="#E2E2F0" height="30.4883" style="stroke:#181818;stroke-width:0.5;" width="51" x="1164.5" y="1449.1504"/><text fill="#000000" font-family="sans-serif" font-size="14" lengthAdjust="spacing" textLength="37" x="1171.5" y="1469.6855">Redis</text><rect fill="#E2E2F0" height="30.4883" rx="2.5" ry="2.5" style="stroke:#181818;stroke-width:0.5;" width="135" x="1291.5" y="87.4883"/><text fill="#000000" font-family="sans-serif" font-size="14" lengthAdjust="spacing" textLength="121" x="1298.5" y="108.0234">WebSocket Server</text><rect fill="#E2E2F0" height="30.4883" rx="2.5" ry="2.5" style="stroke:#181818;stroke-width:0.5;" width="135" x="1291.5" y="1445.1504"/><text fill="#000000" font-family="sans-serif" font-size="14" lengthAdjust="spacing" textLength="121" x="1298.5" y="1465.6855">WebSocket Server</text><rect fill="#E2E2F0" height="30.4883" rx="2.5" ry="2.5" style="stroke:#181818;stroke-width:0.5;" width="104" x="1539" y="87.4883"/><text fill="#000000" font-family="sans-serif" font-size="14" lengthAdjust="spacing" textLength="90" x="1546" y="108.0234">Other Clients</text><rect fill="#E2E2F0" height="30.4883" rx="2.5" ry="2.5" style="stroke:#181818;stroke-width:0.5;" width="104" x="1539" y="1445.1504"/><text fill="#000000" font-family="sans-serif" font-size="14" lengthAdjust="spacing" textLength="90" x="1546" y="1465.6855">Other Clients</text><rect fill="#EEEEEE" height="3" style="stroke:#EEEEEE;stroke-width:1.0;" width="1703" x="0" y="149.6318"/><line style="stroke:#000000;stroke-width:1.0;" x1="0" x2="1703" y1="149.6318" y2="149.6318"/><line style="stroke:#000000;stroke-width:1.0;" x1="0" x2="1703" y1="152.6318" y2="152.6318"/><rect fill="#EEEEEE" height="23.3105" style="stroke:#000000;stroke-width:2.0;" width="169" x="767" y="138.9766"/><text fill="#000000" font-family="sans-serif" font-size="13" font-weight="bold" lengthAdjust="spacing" textLength="151" x="773" y="155.5449">Action Initiation Phase</text><path d="M48,177.2871 L48,202.2871 L1626,202.2871 L1626,187.2871 L1616,177.2871 L48,177.2871 " fill="#FEFFDD" style="stroke:#181818;stroke-width:0.5;"/><path d="M1616,177.2871 L1616,187.2871 L1626,187.2871 L1616,177.2871 " fill="#FEFFDD" style="stroke:#181818;stroke-width:0.5;"/><text fill="#000000" font-family="sans-serif" font-size="13" lengthAdjust="spacing" textLength="386" x="639.5" y="194.8555">Client starts an action and receives a single-use actionToken</text><polygon fill="#181818" points="417,224.9082,427,228.9082,417,232.9082,421,228.9082" style="stroke:#181818;stroke-width:1.0;"/><line style="stroke:#181818;stroke-width:1.0;" x1="83" x2="423" y1="228.9082" y2="228.9082"/><text fill="#000000" font-family="sans-serif" font-size="13" font-weight="bold" lengthAdjust="spacing" textLength="9" x="90" y="224.166">1</text><text fill="#000000" font-family="sans-serif" font-size="13" lengthAdjust="spacing" textLength="173" x="103" y="224.166">POST /api/v1/actions/start</text><polygon fill="#181818" points="587,254.2188,597,258.2188,587,262.2188,591,258.2188" style="stroke:#181818;stroke-width:1.0;"/><line style="stroke:#181818;stroke-width:1.0;" x1="429" x2="593" y1="258.2188" y2="258.2188"/><text fill="#000000" font-family="sans-serif" font-size="13" font-weight="bold" lengthAdjust="spacing" textLength="9" x="436" y="253.4766">2</text><text fill="#000000" font-family="sans-serif" font-size="13" lengthAdjust="spacing" textLength="77" x="449" y="253.4766">Validate JWT</text><polygon fill="#181818" points="440,283.5293,430,287.5293,440,291.5293,436,287.5293" style="stroke:#181818;stroke-width:1.0;"/><line style="stroke:#181818;stroke-width:1.0;stroke-dasharray:2.0,2.0;" x1="434" x2="598" y1="287.5293" y2="287.5293"/><text fill="#000000" font-family="sans-serif" font-size="13" font-weight="bold" lengthAdjust="spacing" textLength="9" x="446" y="282.7871">3</text><text fill="#000000" font-family="sans-serif" font-size="13" lengthAdjust="spacing" textLength="73" x="459" y="282.7871">Token valid</text><polygon fill="#181818" points="733,312.8398,743,316.8398,733,320.8398,737,316.8398" style="stroke:#181818;stroke-width:1.0;"/><line style="stroke:#181818;stroke-width:1.0;" x1="429" x2="739" y1="316.8398" y2="316.8398"/><text fill="#000000" font-family="sans-serif" font-size="13" font-weight="bold" lengthAdjust="spacing" textLength="9" x="436" y="312.0977">4</text><text fill="#000000" font-family="sans-serif" font-size="13" lengthAdjust="spacing" textLength="233" x="449" y="312.0977">Create action token (userId, actionId)</text><polygon fill="#181818" points="1180,357.4609,1190,361.4609,1180,365.4609,1184,361.4609" style="stroke:#181818;stroke-width:1.0;"/><line style="stroke:#181818;stroke-width:1.0;" x1="745" x2="1186" y1="361.4609" y2="361.4609"/><text fill="#000000" font-family="sans-serif" font-size="13" font-weight="bold" lengthAdjust="spacing" textLength="9" x="752" y="349.0635">5</text><text fill="#000000" font-family="sans-serif" font-size="13" lengthAdjust="spacing" textLength="329" x="765" y="341.4082">SET action:{actionId} = {userId, createdAt, expiresAt}</text><text fill="#000000" font-family="sans-serif" font-size="13" lengthAdjust="spacing" textLength="35" x="765" y="356.7188">EX 60</text><polygon fill="#181818" points="756,386.7715,746,390.7715,756,394.7715,752,390.7715" style="stroke:#181818;stroke-width:1.0;"/><line style="stroke:#181818;stroke-width:1.0;stroke-dasharray:2.0,2.0;" x1="750" x2="1191" y1="390.7715" y2="390.7715"/><text fill="#000000" font-family="sans-serif" font-size="13" font-weight="bold" lengthAdjust="spacing" textLength="9" x="762" y="386.0293">6</text><text fill="#000000" font-family="sans-serif" font-size="13" lengthAdjust="spacing" textLength="18" x="775" y="386.0293">OK</text><polygon fill="#181818" points="94,416.082,84,420.082,94,424.082,90,420.082" style="stroke:#181818;stroke-width:1.0;"/><line style="stroke:#181818;stroke-width:1.0;stroke-dasharray:2.0,2.0;" x1="88" x2="744" y1="420.082" y2="420.082"/><text fill="#000000" font-family="sans-serif" font-size="13" font-weight="bold" lengthAdjust="spacing" textLength="9" x="100" y="415.3398">7</text><text fill="#000000" font-family="sans-serif" font-size="13" lengthAdjust="spacing" textLength="153" x="113" y="415.3398">{ actionId, actionToken }</text><rect fill="#EEEEEE" height="3" style="stroke:#EEEEEE;stroke-width:1.0;" width="1703" x="0" y="448.7373"/><line style="stroke:#000000;stroke-width:1.0;" x1="0" x2="1703" y1="448.7373" y2="448.7373"/><line style="stroke:#000000;stroke-width:1.0;" x1="0" x2="1703" y1="451.7373" y2="451.7373"/><rect fill="#EEEEEE" height="23.3105" style="stroke:#000000;stroke-width:2.0;" width="186" x="758.5" y="438.082"/><text fill="#000000" font-family="sans-serif" font-size="13" font-weight="bold" lengthAdjust="spacing" textLength="168" x="764.5" y="454.6504">Action Completion Phase</text><polygon fill="#181818" points="417,488.7031,427,492.7031,417,496.7031,421,492.7031" style="stroke:#181818;stroke-width:1.0;"/><line style="stroke:#181818;stroke-width:1.0;" x1="83" x2="423" y1="492.7031" y2="492.7031"/><text fill="#000000" font-family="sans-serif" font-size="13" font-weight="bold" lengthAdjust="spacing" textLength="9" x="90" y="487.9609">8</text><text fill="#000000" font-family="sans-serif" font-size="13" lengthAdjust="spacing" textLength="309" x="103" y="487.9609">POST /api/v1/scoreboard/update { actionToken }</text><polygon fill="#181818" points="587,518.0137,597,522.0137,587,526.0137,591,522.0137" style="stroke:#181818;stroke-width:1.0;"/><line style="stroke:#181818;stroke-width:1.0;" x1="429" x2="593" y1="522.0137" y2="522.0137"/><text fill="#000000" font-family="sans-serif" font-size="13" font-weight="bold" lengthAdjust="spacing" textLength="9" x="436" y="517.2715">9</text><text fill="#000000" font-family="sans-serif" font-size="13" lengthAdjust="spacing" textLength="77" x="449" y="517.2715">Validate JWT</text><polygon fill="#181818" points="440,547.3242,430,551.3242,440,555.3242,436,551.3242" style="stroke:#181818;stroke-width:1.0;"/><line style="stroke:#181818;stroke-width:1.0;stroke-dasharray:2.0,2.0;" x1="434" x2="598" y1="551.3242" y2="551.3242"/><text fill="#000000" font-family="sans-serif" font-size="13" font-weight="bold" lengthAdjust="spacing" textLength="18" x="446" y="546.582">10</text><text fill="#000000" font-family="sans-serif" font-size="13" lengthAdjust="spacing" textLength="124" x="468" y="546.582">Token valid (userId)</text><polygon fill="#181818" points="733,576.6348,743,580.6348,733,584.6348,737,580.6348" style="stroke:#181818;stroke-width:1.0;"/><line style="stroke:#181818;stroke-width:1.0;" x1="429" x2="739" y1="580.6348" y2="580.6348"/><text fill="#000000" font-family="sans-serif" font-size="13" font-weight="bold" lengthAdjust="spacing" textLength="18" x="436" y="575.8926">11</text><text fill="#000000" font-family="sans-serif" font-size="13" lengthAdjust="spacing" textLength="270" x="458" y="575.8926">UpdateScore(userId, actionId, actionToken)</text><path d="M10,595.6348 L123,595.6348 L123,602.9453 L113,612.9453 L10,612.9453 L10,595.6348 " fill="#EEEEEE" style="stroke:#000000;stroke-width:1.5;"/><rect fill="none" height="833.5156" style="stroke:#000000;stroke-width:1.5;" width="1683" x="10" y="595.6348"/><text fill="#000000" font-family="sans-serif" font-size="13" font-weight="bold" lengthAdjust="spacing" textLength="68" x="25" y="609.2031">Validation</text><polygon fill="#181818" points="1180,645.5664,1190,649.5664,1180,653.5664,1184,649.5664" style="stroke:#181818;stroke-width:1.0;"/><line style="stroke:#181818;stroke-width:1.0;" x1="745" x2="1186" y1="649.5664" y2="649.5664"/><text fill="#000000" font-family="sans-serif" font-size="13" font-weight="bold" lengthAdjust="spacing" textLength="18" x="752" y="637.1689">12</text><text fill="#000000" font-family="sans-serif" font-size="13" lengthAdjust="spacing" textLength="166" x="774" y="629.5137">INCR rate:{userId}:{minute}</text><text fill="#000000" font-family="sans-serif" font-size="13" lengthAdjust="spacing" textLength="61" x="774" y="644.8242">EXPIRE 60</text><path d="M20,664.5664 L82,664.5664 L82,671.877 L72,681.877 L20,681.877 L20,664.5664 " fill="#EEEEEE" style="stroke:#000000;stroke-width:1.5;"/><rect fill="none" height="757.584" style="stroke:#000000;stroke-width:1.5;" width="1663" x="20" y="664.5664"/><text fill="#000000" font-family="sans-serif" font-size="13" font-weight="bold" lengthAdjust="spacing" textLength="17" x="35" y="678.1348">alt</text><text fill="#000000" font-family="sans-serif" font-size="11" font-weight="bold" lengthAdjust="spacing" textLength="117" x="97" y="677.2012">[Rate limit exceeded]</text><polygon fill="#181818" points="94,699.1875,84,703.1875,94,707.1875,90,703.1875" style="stroke:#181818;stroke-width:1.0;"/><line style="stroke:#181818;stroke-width:1.0;stroke-dasharray:2.0,2.0;" x1="88" x2="744" y1="703.1875" y2="703.1875"/><text fill="#000000" font-family="sans-serif" font-size="13" font-weight="bold" lengthAdjust="spacing" textLength="18" x="100" y="698.4453">13</text><text fill="#000000" font-family="sans-serif" font-size="13" lengthAdjust="spacing" textLength="150" x="122" y="698.4453">429 Too Many Requests</text><line style="stroke:#000000;stroke-width:1.0;stroke-dasharray:2.0,2.0;" x1="20" x2="1683" y1="712.1875" y2="712.1875"/><text fill="#000000" font-family="sans-serif" font-size="11" font-weight="bold" lengthAdjust="spacing" textLength="75" x="25" y="722.8223">[Within limit]</text><polygon fill="#181818" points="1180,743.4531,1190,747.4531,1180,751.4531,1184,747.4531" style="stroke:#181818;stroke-width:1.0;"/><line style="stroke:#181818;stroke-width:1.0;" x1="745" x2="1186" y1="747.4531" y2="747.4531"/><text fill="#000000" font-family="sans-serif" font-size="13" font-weight="bold" lengthAdjust="spacing" textLength="18" x="752" y="742.7109">14</text><text fill="#000000" font-family="sans-serif" font-size="13" lengthAdjust="spacing" textLength="130" x="774" y="742.7109">GET action:{actionId}</text><path d="M30,762.4531 L92,762.4531 L92,769.7637 L82,779.7637 L30,779.7637 L30,762.4531 " fill="#EEEEEE" style="stroke:#000000;stroke-width:1.5;"/><rect fill="none" height="652.6973" style="stroke:#000000;stroke-width:1.5;" width="1643" x="30" y="762.4531"/><text fill="#000000" font-family="sans-serif" font-size="13" font-weight="bold" lengthAdjust="spacing" textLength="17" x="45" y="776.0215">alt</text><text fill="#000000" font-family="sans-serif" font-size="11" font-weight="bold" lengthAdjust="spacing" textLength="187" x="107" y="775.0879">[Token missing / expired / used]</text><polygon fill="#181818" points="756,797.0742,746,801.0742,756,805.0742,752,801.0742" style="stroke:#181818;stroke-width:1.0;"/><line style="stroke:#181818;stroke-width:1.0;stroke-dasharray:2.0,2.0;" x1="750" x2="1191" y1="801.0742" y2="801.0742"/><text fill="#000000" font-family="sans-serif" font-size="13" font-weight="bold" lengthAdjust="spacing" textLength="18" x="762" y="796.332">15</text><text fill="#000000" font-family="sans-serif" font-size="13" lengthAdjust="spacing" textLength="81" x="784" y="796.332">null / invalid</text><polygon fill="#181818" points="94,826.3848,84,830.3848,94,834.3848,90,830.3848" style="stroke:#181818;stroke-width:1.0;"/><line style="stroke:#181818;stroke-width:1.0;stroke-dasharray:2.0,2.0;" x1="88" x2="744" y1="830.3848" y2="830.3848"/><text fill="#000000" font-family="sans-serif" font-size="13" font-weight="bold" lengthAdjust="spacing" textLength="18" x="100" y="825.6426">16</text><text fill="#000000" font-family="sans-serif" font-size="13" lengthAdjust="spacing" textLength="153" x="122" y="825.6426">403 Invalid action token</text><line style="stroke:#000000;stroke-width:1.0;stroke-dasharray:2.0,2.0;" x1="30" x2="1673" y1="839.3848" y2="839.3848"/><text fill="#000000" font-family="sans-serif" font-size="11" font-weight="bold" lengthAdjust="spacing" textLength="88" x="35" y="850.0195">[Token present]</text><polygon fill="#181818" points="756,870.6504,746,874.6504,756,878.6504,752,874.6504" style="stroke:#181818;stroke-width:1.0;"/><line style="stroke:#181818;stroke-width:1.0;stroke-dasharray:2.0,2.0;" x1="750" x2="1191" y1="874.6504" y2="874.6504"/><text fill="#000000" font-family="sans-serif" font-size="13" font-weight="bold" lengthAdjust="spacing" textLength="18" x="762" y="869.9082">17</text><text fill="#000000" font-family="sans-serif" font-size="13" lengthAdjust="spacing" textLength="191" x="784" y="869.9082">{ userId, createdAt, expiresAt }</text><path d="M40,889.6504 L102,889.6504 L102,896.9609 L92,906.9609 L40,906.9609 L40,889.6504 " fill="#EEEEEE" style="stroke:#000000;stroke-width:1.5;"/><rect fill="none" height="518.5" style="stroke:#000000;stroke-width:1.5;" width="1623" x="40" y="889.6504"/><text fill="#000000" font-family="sans-serif" font-size="13" font-weight="bold" lengthAdjust="spacing" textLength="17" x="55" y="903.2188">alt</text><text fill="#000000" font-family="sans-serif" font-size="11" font-weight="bold" lengthAdjust="spacing" textLength="102" x="117" y="902.2852">[userId mismatch]</text><polygon fill="#181818" points="94,924.2715,84,928.2715,94,932.2715,90,928.2715" style="stroke:#181818;stroke-width:1.0;"/><line style="stroke:#181818;stroke-width:1.0;stroke-dasharray:2.0,2.0;" x1="88" x2="744" y1="928.2715" y2="928.2715"/><text fill="#000000" font-family="sans-serif" font-size="13" font-weight="bold" lengthAdjust="spacing" textLength="18" x="100" y="923.5293">18</text><text fill="#000000" font-family="sans-serif" font-size="13" lengthAdjust="spacing" textLength="112" x="122" y="923.5293">401 Unauthorized</text><line style="stroke:#000000;stroke-width:1.0;stroke-dasharray:2.0,2.0;" x1="40" x2="1663" y1="937.2715" y2="937.2715"/><text fill="#000000" font-family="sans-serif" font-size="11" font-weight="bold" lengthAdjust="spacing" textLength="93" x="45" y="947.9063">[userId matches]</text><line style="stroke:#181818;stroke-width:1.0;" x1="745" x2="787" y1="972.5371" y2="972.5371"/><line style="stroke:#181818;stroke-width:1.0;" x1="787" x2="787" y1="972.5371" y2="985.5371"/><line style="stroke:#181818;stroke-width:1.0;" x1="746" x2="787" y1="985.5371" y2="985.5371"/><polygon fill="#181818" points="756,981.5371,746,985.5371,756,989.5371,752,985.5371" style="stroke:#181818;stroke-width:1.0;"/><text fill="#000000" font-family="sans-serif" font-size="13" font-weight="bold" lengthAdjust="spacing" textLength="18" x="752" y="967.7949">19</text><text fill="#000000" font-family="sans-serif" font-size="13" lengthAdjust="spacing" textLength="238" x="774" y="967.7949">Verify action completion (server-side)</text><path d="M50,1000.5371 L112,1000.5371 L112,1007.8477 L102,1017.8477 L50,1017.8477 L50,1000.5371 " fill="#EEEEEE" style="stroke:#000000;stroke-width:1.5;"/><rect fill="none" height="400.6133" style="stroke:#000000;stroke-width:1.5;" width="1603" x="50" y="1000.5371"/><text fill="#000000" font-family="sans-serif" font-size="13" font-weight="bold" lengthAdjust="spacing" textLength="17" x="65" y="1014.1055">alt</text><text fill="#000000" font-family="sans-serif" font-size="11" font-weight="bold" lengthAdjust="spacing" textLength="128" x="127" y="1013.1719">[Action not completed]</text><polygon fill="#181818" points="94,1035.1582,84,1039.1582,94,1043.1582,90,1039.1582" style="stroke:#181818;stroke-width:1.0;"/><line style="stroke:#181818;stroke-width:1.0;stroke-dasharray:2.0,2.0;" x1="88" x2="744" y1="1039.1582" y2="1039.1582"/><text fill="#000000" font-family="sans-serif" font-size="13" font-weight="bold" lengthAdjust="spacing" textLength="18" x="100" y="1034.416">20</text><text fill="#000000" font-family="sans-serif" font-size="13" lengthAdjust="spacing" textLength="164" x="122" y="1034.416">403 Action not completed</text><line style="stroke:#000000;stroke-width:1.0;stroke-dasharray:2.0,2.0;" x1="50" x2="1653" y1="1048.1582" y2="1048.1582"/><text fill="#000000" font-family="sans-serif" font-size="11" font-weight="bold" lengthAdjust="spacing" textLength="106" x="55" y="1058.793">[Action completed]</text><polygon fill="#181818" points="1180,1079.4238,1190,1083.4238,1180,1087.4238,1184,1083.4238" style="stroke:#181818;stroke-width:1.0;"/><line style="stroke:#181818;stroke-width:1.0;" x1="745" x2="1186" y1="1083.4238" y2="1083.4238"/><text fill="#000000" font-family="sans-serif" font-size="13" font-weight="bold" lengthAdjust="spacing" textLength="18" x="752" y="1078.6816">21</text><text fill="#000000" font-family="sans-serif" font-size="13" lengthAdjust="spacing" textLength="208" x="774" y="1078.6816">DEL action:{actionId} (mark used)</text><polygon fill="#181818" points="1007,1154.666,1017,1158.666,1007,1162.666,1011,1158.666" style="stroke:#181818;stroke-width:1.0;"/><line style="stroke:#181818;stroke-width:1.0;" x1="745" x2="1013" y1="1158.666" y2="1158.666"/><text fill="#000000" font-family="sans-serif" font-size="13" font-weight="bold" lengthAdjust="spacing" textLength="18" x="752" y="1130.958">22</text><text fill="#000000" font-family="sans-serif" font-size="13" lengthAdjust="spacing" textLength="129" x="774" y="1107.9922">UPDATE user_scores</text><text fill="#000000" font-family="sans-serif" font-size="13" lengthAdjust="spacing" textLength="142" x="774" y="1123.3027">SET score = score + X,</text><text fill="#000000" font-family="sans-serif" font-size="13" lengthAdjust="spacing" textLength="136" x="790" y="1138.6133">version = version + 1</text><text fill="#000000" font-family="sans-serif" font-size="13" lengthAdjust="spacing" textLength="150" x="774" y="1153.9238">WHERE user_id = userId</text><polygon fill="#181818" points="756,1183.9766,746,1187.9766,756,1191.9766,752,1187.9766" style="stroke:#181818;stroke-width:1.0;"/><line style="stroke:#181818;stroke-width:1.0;stroke-dasharray:2.0,2.0;" x1="750" x2="1018" y1="1187.9766" y2="1187.9766"/><text fill="#000000" font-family="sans-serif" font-size="13" font-weight="bold" lengthAdjust="spacing" textLength="18" x="762" y="1183.2344">23</text><text fill="#000000" font-family="sans-serif" font-size="13" lengthAdjust="spacing" textLength="50" x="784" y="1183.2344">Success</text><polygon fill="#181818" points="1180,1213.2871,1190,1217.2871,1180,1221.2871,1184,1217.2871" style="stroke:#181818;stroke-width:1.0;"/><line style="stroke:#181818;stroke-width:1.0;" x1="745" x2="1186" y1="1217.2871" y2="1217.2871"/><text fill="#000000" font-family="sans-serif" font-size="13" font-weight="bold" lengthAdjust="spacing" textLength="18" x="752" y="1212.5449">24</text><text fill="#000000" font-family="sans-serif" font-size="13" lengthAdjust="spacing" textLength="212" x="774" y="1212.5449">ZADD leaderboard {score} {userId}</text><polygon fill="#181818" points="756,1242.5977,746,1246.5977,756,1250.5977,752,1246.5977" style="stroke:#181818;stroke-width:1.0;"/><line style="stroke:#181818;stroke-width:1.0;stroke-dasharray:2.0,2.0;" x1="750" x2="1191" y1="1246.5977" y2="1246.5977"/><text fill="#000000" font-family="sans-serif" font-size="13" font-weight="bold" lengthAdjust="spacing" textLength="18" x="762" y="1241.8555">25</text><text fill="#000000" font-family="sans-serif" font-size="13" lengthAdjust="spacing" textLength="86" x="784" y="1241.8555">Rank updated</text><polygon fill="#181818" points="1180,1271.9082,1190,1275.9082,1180,1279.9082,1184,1275.9082" style="stroke:#181818;stroke-width:1.0;"/><line style="stroke:#181818;stroke-width:1.0;" x1="745" x2="1186" y1="1275.9082" y2="1275.9082"/><text fill="#000000" font-family="sans-serif" font-size="13" font-weight="bold" lengthAdjust="spacing" textLength="18" x="752" y="1271.166">26</text><text fill="#000000" font-family="sans-serif" font-size="13" lengthAdjust="spacing" textLength="401" x="774" y="1271.166">PUBLISH leaderboard:update { userId, newScore, changedRanks }</text><polygon fill="#181818" points="1347,1301.2188,1357,1305.2188,1347,1309.2188,1351,1305.2188" style="stroke:#181818;stroke-width:1.0;"/><line style="stroke:#181818;stroke-width:1.0;" x1="1192" x2="1353" y1="1305.2188" y2="1305.2188"/><text fill="#000000" font-family="sans-serif" font-size="13" font-weight="bold" lengthAdjust="spacing" textLength="18" x="1199" y="1300.4766">27</text><text fill="#000000" font-family="sans-serif" font-size="13" lengthAdjust="spacing" textLength="121" x="1221" y="1300.4766">leaderboard:update</text><polygon fill="#181818" points="94,1330.5293,84,1334.5293,94,1338.5293,90,1334.5293" style="stroke:#181818;stroke-width:1.0;"/><line style="stroke:#181818;stroke-width:1.0;stroke-dasharray:2.0,2.0;" x1="88" x2="744" y1="1334.5293" y2="1334.5293"/><text fill="#000000" font-family="sans-serif" font-size="13" font-weight="bold" lengthAdjust="spacing" textLength="18" x="100" y="1329.7871">28</text><text fill="#000000" font-family="sans-serif" font-size="13" lengthAdjust="spacing" textLength="189" x="122" y="1329.7871">200 OK { newScore, newRank }</text><polygon fill="#181818" points="1579,1359.8398,1589,1363.8398,1579,1367.8398,1583,1363.8398" style="stroke:#181818;stroke-width:1.0;"/><line style="stroke:#181818;stroke-width:1.0;" x1="1359" x2="1585" y1="1363.8398" y2="1363.8398"/><text fill="#000000" font-family="sans-serif" font-size="13" font-weight="bold" lengthAdjust="spacing" textLength="18" x="1366" y="1359.0977">29</text><text fill="#000000" font-family="sans-serif" font-size="13" lengthAdjust="spacing" textLength="186" x="1388" y="1359.0977">Broadcast leaderboard:update</text><polygon fill="#181818" points="94,1389.1504,84,1393.1504,94,1397.1504,90,1393.1504" style="stroke:#181818;stroke-width:1.0;"/><line style="stroke:#181818;stroke-width:1.0;" x1="88" x2="1358" y1="1393.1504" y2="1393.1504"/><text fill="#000000" font-family="sans-serif" font-size="13" font-weight="bold" lengthAdjust="spacing" textLength="18" x="100" y="1388.4082">30</text><text fill="#000000" font-family="sans-serif" font-size="13" lengthAdjust="spacing" textLength="186" x="122" y="1388.4082">Broadcast leaderboard:update</text><!--SRC=[dLPjRo8t4FxkNp7Afw20IAvLfQx4IS1o2UrTGImSfrEaojcT1YkBbzfUqXJntszixoxBIn0jKeInPvvvvl7CE4QO526ACuKmMoNS8BJWKvwcy2dDNk7wj_aKRY0IyZd5ramZT6CZCWdJx0KbdSpnAShY5pJGKnbFOgvDW_7SP39VFg5YZCScKz1F1Kh3LbmP4OiLbmQkkkCXt5F0L_vs1Lm3_RwV7vZaPW4HghM8qTlCfW_x9fvwtIRgZoO3Hgdm9qw4hy9YvGx37ekpD4MNXOQh2IP2kvF981n6-zYxv2m-AcStZmwiHcQ1POOUQZHz64mYnZgTKgwX54PmjnmlBAjEXycCnCxMbM-pS0Fw-1tGXW9fu1Aun-4o0OKnYZNIDcX_Bpa1UWDtBGp9og8pLk2qFdfr0nYFeYcq-KgqrtTjxwFRBWnp5iwKH0xWAq-5gmSg0MQteBM3yTU_jYOxFoTy07s5rgrWR9pbDL5KmwHPx0wJ1dFMriq97q0qc1QdmQQqsa87DgLhx72Jhca2_hCI2dNNR1_bu1lySiiSY6DOi1ZzNaQWFIz309igVhCk66phTzNFbgiKz-_gl8xQrk1JnbNIpdqFRGxW_wUsfMwD8v5zhxhYFz9sBxS6OyygorTbJDft5NOe__2F_WGKOGQ5uDjWinGoD-Wq7W_9cdIshZmrCB7iKx4KXYuZHammSMSrw9hkFt_ubTBAu0kNRp31ltFKHZjxJ4dWkJ0B8JtS8Kf5yFvKVLJMbfCNRYcqRGje5rMIq8eosj6pdwDoaNRajK58NzDrsnFftFv47Urlg5xcbPlBojDPKPtQqNSs-WRE5JbizxnjgjxSvhha9bxidR_7-GvcaYRp8bFYtmCv7DyIqmAYVW-oulmLbVZhhSm_tZNDjNR3igL5WeqZ6Ck-Q3GQKQNV0P_pqb_axbBgxf4x7wGgj73m-SGWkbvozU8AgN4U9UnHTux3xdJW5FtJ3GVzAErySskQQVxx1hur7wLr9hcq9TgfLZTmzoZdz1uKA5HfdUA6JeOFU_LwYl8uHgqlIlTxDmmXHPwWSYCCDexTjXoysvCeHoKyuPBaSLFfCfd7izxdOVHG3nrKqxDi1uclRiPHOoouVCR4Xj5mbjD7-qG79t0lBB4FjxVqUX29NN1QkVnEnwLmDgf_leFTFqANKYZyo_Z_oP-UUlRUxt9jl-tV3m00]--></g></svg>